
<!-- Generator: visioncortex VTracer 0.6.4 -->
<svg version="1.1" xmlns="http://www.w3.org/2000/svg" viewBox="0 0 240 240" preserveAspectRatio="xMidYMid meet">
<path d="M0 0 C0.658 0.001 1.315 0.001 1.992 0.002 C30.665 0.11 56.56 10.026 78.5 28.375 C79.446 29.156 80.392 29.937 81.367 30.742 C102.485 48.988 117.747 76.446 120.5 104.375 C121.395 119.963 121.903 136.28 117.5 151.375 C117.307 152.04 117.113 152.706 116.914 153.391 C107.569 184.592 86.75 210.761 58.271 226.616 C40.613 236.005 22.755 240.563 2.759 240.56 C0.769 240.562 -1.221 240.581 -3.211 240.6 C-4.497 240.602 -5.784 240.603 -7.109 240.605 C-8.264 240.61 -9.419 240.614 -10.608 240.618 C-15.619 240.305 -20.561 239.273 -25.5 238.375 C-25.5 215.275 -25.5 192.175 -25.5 168.375 C-18.905 168.338 -12.31 168.3 -5.516 168.262 C-1.341 168.231 2.833 168.2 7.008 168.166 C13.636 168.112 20.264 168.061 26.892 168.029 C32.234 168.003 37.577 167.962 42.92 167.912 C44.959 167.895 46.999 167.884 49.039 167.877 C51.893 167.868 54.747 167.84 57.601 167.807 C58.446 167.809 59.292 167.81 60.164 167.812 C63.527 167.758 66.022 167.639 68.998 165.993 C71.074 163.757 71.429 162.426 71.5 159.375 C69.92 155.077 69.92 155.077 66.5 152.375 C64.542 152.221 62.58 152.125 60.617 152.059 C59.451 152.017 58.284 151.975 57.082 151.932 C55.859 151.892 54.635 151.853 53.375 151.812 C52.144 151.769 50.913 151.726 49.645 151.682 C46.596 151.575 43.548 151.473 40.5 151.375 C39.51 147.91 39.51 147.91 38.5 144.375 C44.253 142.161 50.041 140.209 55.926 138.379 C57.709 137.815 59.492 137.251 61.275 136.686 C64.056 135.806 66.838 134.93 69.623 134.066 C72.332 133.225 75.036 132.366 77.738 131.504 C78.573 131.25 79.407 130.995 80.267 130.733 C84.799 129.269 84.799 129.269 88.524 126.398 C90.032 123.271 89.866 120.787 89.5 117.375 C88.529 114.913 88.529 114.913 86.5 113.375 C81.572 112.034 78.563 112.704 73.844 114.508 C73.22 114.742 72.595 114.975 71.952 115.216 C69.963 115.964 67.982 116.731 66 117.5 C64.701 117.994 63.402 118.486 62.102 118.977 C60.165 119.708 58.228 120.442 56.294 121.181 C49.734 123.686 43.123 126.041 36.5 128.375 C35.18 125.735 33.86 123.095 32.5 120.375 C37.055 115.468 42.287 111.581 47.625 107.562 C49.03 106.496 49.03 106.496 50.464 105.407 C56.108 101.135 61.79 96.944 67.637 92.953 C69.703 91.203 70.595 89.917 71.5 87.375 C71.322 83.99 71.146 81.396 69.312 78.5 C66.64 76.841 64.644 76.498 61.5 76.375 C56.489 78.407 53.118 81.301 49.312 85 C44.359 89.703 39.297 94.1 33.938 98.34 C31.297 100.545 28.899 102.912 26.5 105.375 C23.064 103.848 20.381 101.776 17.5 99.375 C18.974 95.111 21.224 91.698 23.852 88.078 C24.712 86.86 25.571 85.641 26.43 84.422 C27.774 82.521 29.124 80.626 30.492 78.742 C36.719 70.704 36.719 70.704 39.203 61.141 C38.448 57.099 37.821 55.72 34.5 53.375 C31.597 51.924 29.727 52.003 26.5 52.375 C20.978 56.226 17.609 61.091 13.875 66.625 C12.648 68.413 11.42 70.201 10.191 71.988 C9.271 73.335 9.271 73.335 8.333 74.709 C5.052 79.481 1.682 84.191 -1.68 88.905 C-6.708 95.321 -6.708 95.321 -8.438 102.938 C-7.391 106.773 -6.581 107.95 -3.5 110.375 C-0.632 110.96 -0.632 110.96 2.438 110.938 C7.976 111.057 11.297 112.248 15.312 116.125 C17.029 119.377 16.882 121.75 16.5 125.375 C14.397 130.515 12.936 130.657 7.5 133.375 C-3.39 133.045 -14.28 132.715 -25.5 132.375 C-25.5 89.475 -25.5 46.575 -25.5 2.375 C-16.543 0.746 -8.957 -0.013 0 0 Z " fill="#42C1DA" transform="translate(119.5,-0.375)"/>
<path d="M0 0 C0 76.56 0 153.12 0 232 C-10 229 -10 229 -23 223 C-23 204.19 -23 185.38 -23 166 C-17 164 -17 164 -13 164 C-13 150.47 -13 136.94 -13 123 C-14.98 122.34 -16.96 121.68 -19 121 C-20.32 120.34 -21.64 119.68 -23 119 C-23 82.7 -23 46.4 -23 9 C-5 0 -5 0 0 0 Z " fill="#64D5D2" transform="translate(88,4)"/>
<path d="M0 0 C0 66 0 132 0 200 C-3.96 197.525 -3.96 197.525 -8 195 C-8 194.34 -8 193.68 -8 193 C-8.86 192.613 -8.86 192.613 -9.738 192.219 C-12.205 190.889 -14.092 189.356 -16.188 187.5 C-16.882 186.892 -17.577 186.283 -18.293 185.656 C-22.209 181.856 -21.414 176.827 -21.562 171.688 C-21.625 170.737 -21.688 169.786 -21.752 168.807 C-21.817 165.996 -21.763 163.709 -21 161 C-17.617 157.481 -13.645 156.117 -9 155 C-8.875 147.689 -8.811 140.379 -8.821 133.067 C-8.824 129.671 -8.807 126.277 -8.743 122.881 C-8.67 118.971 -8.686 115.063 -8.707 111.152 C-8.672 109.942 -8.637 108.731 -8.601 107.484 C-8.66 103.996 -8.797 101.28 -10 98 C-12.487 96.115 -12.487 96.115 -15.498 94.717 C-18.508 93.121 -18.508 93.121 -21 91 C-22.665 85.487 -22.456 80.09 -22.32 74.375 C-22.318 72.743 -22.319 71.11 -22.323 69.478 C-22.322 66.064 -22.282 62.653 -22.214 59.24 C-22.129 54.878 -22.124 50.52 -22.145 46.157 C-22.155 42.789 -22.129 39.421 -22.092 36.053 C-22.078 34.446 -22.072 32.838 -22.076 31.231 C-22.07 17.144 -22.07 17.144 -17.651 12.64 C-15.835 11.227 -15.835 11.227 -14 10 C-12.831 9.049 -11.666 8.093 -10.508 7.129 C-9.384 6.268 -8.257 5.413 -7.125 4.562 C-6.545 4.117 -5.965 3.672 -5.367 3.213 C-1.143 0 -1.143 0 0 0 Z " fill="#71DDCF" transform="translate(53,20)"/>
<path d="M0 0 C0.33 0 0.66 0 1 0 C1 35.31 1 70.62 1 107 C-1.822 103.238 -3.416 99.842 -5 95.5 C-5.261 94.792 -5.523 94.085 -5.792 93.356 C-16.318 64.241 -14.636 31.143 -2 3 C-1.34 2.01 -0.68 1.02 0 0 Z " fill="#7FE5CC" transform="translate(12,67)"/>
</svg>