<?xml version="1.0" encoding="UTF-8"?>
<svg xmlns="http://www.w3.org/2000/svg" xmlns:xlink="http://www.w3.org/1999/xlink" width="32px" height="32px" viewBox="0 0 32 32" version="1.1">
<g id="surface1">
<path style=" stroke:none;fill-rule:nonzero;fill:rgb(25.882354%,75.686276%,85.490197%);fill-opacity:1;" d="M 15.933594 -0.0507812 C 16.019531 -0.0507812 16.109375 -0.0507812 16.199219 -0.0507812 C 20.023438 -0.0351562 23.476562 1.285156 26.398438 3.734375 C 26.527344 3.835938 26.652344 3.941406 26.78125 4.050781 C 29.597656 6.480469 31.632812 10.144531 32 13.867188 C 32.121094 15.945312 32.1875 18.121094 31.601562 20.132812 C 31.574219 20.222656 31.546875 20.3125 31.523438 20.402344 C 30.277344 24.5625 27.5 28.050781 23.703125 30.164062 C 21.347656 31.417969 18.96875 32.023438 16.300781 32.023438 C 16.035156 32.023438 15.769531 32.027344 15.503906 32.03125 C 15.332031 32.03125 15.164062 32.03125 14.984375 32.03125 C 14.832031 32.03125 14.675781 32.03125 14.519531 32.03125 C 13.851562 31.992188 13.191406 31.851562 12.535156 31.734375 C 12.535156 28.652344 12.535156 25.574219 12.535156 22.398438 C 13.414062 22.394531 14.292969 22.390625 15.199219 22.386719 C 15.753906 22.378906 16.3125 22.375 16.867188 22.371094 C 17.75 22.363281 18.636719 22.359375 19.519531 22.355469 C 20.230469 22.351562 20.945312 22.34375 21.65625 22.339844 C 21.929688 22.335938 22.199219 22.335938 22.472656 22.332031 C 22.851562 22.332031 23.234375 22.328125 23.613281 22.324219 C 23.726562 22.324219 23.839844 22.324219 23.957031 22.324219 C 24.402344 22.316406 24.734375 22.300781 25.132812 22.082031 C 25.410156 21.785156 25.457031 21.605469 25.464844 21.199219 C 25.257812 20.625 25.257812 20.625 24.800781 20.265625 C 24.539062 20.246094 24.277344 20.234375 24.015625 20.222656 C 23.859375 20.21875 23.703125 20.214844 23.542969 20.207031 C 23.382812 20.203125 23.21875 20.195312 23.050781 20.191406 C 22.886719 20.1875 22.722656 20.179688 22.550781 20.175781 C 22.144531 20.160156 21.738281 20.144531 21.332031 20.132812 C 21.203125 19.671875 21.203125 19.671875 21.066406 19.199219 C 21.832031 18.90625 22.605469 18.644531 23.390625 18.402344 C 23.628906 18.324219 23.867188 18.25 24.101562 18.175781 C 24.472656 18.058594 24.84375 17.941406 25.214844 17.824219 C 25.578125 17.714844 25.9375 17.597656 26.296875 17.484375 C 26.410156 17.449219 26.519531 17.414062 26.636719 17.382812 C 27.238281 17.1875 27.238281 17.1875 27.738281 16.804688 C 27.9375 16.386719 27.914062 16.054688 27.867188 15.601562 C 27.738281 15.273438 27.738281 15.273438 27.464844 15.066406 C 26.808594 14.886719 26.410156 14.976562 25.777344 15.21875 C 25.695312 15.25 25.613281 15.28125 25.527344 15.3125 C 25.261719 15.410156 24.996094 15.515625 24.734375 15.617188 C 24.558594 15.683594 24.386719 15.75 24.214844 15.8125 C 23.957031 15.910156 23.695312 16.007812 23.4375 16.109375 C 22.566406 16.441406 21.683594 16.753906 20.800781 17.066406 C 20.625 16.714844 20.449219 16.363281 20.265625 16 C 20.875 15.347656 21.570312 14.828125 22.285156 14.292969 C 22.46875 14.148438 22.46875 14.148438 22.660156 14.003906 C 23.414062 13.433594 24.171875 12.875 24.953125 12.34375 C 25.226562 12.109375 25.347656 11.9375 25.464844 11.601562 C 25.441406 11.148438 25.417969 10.804688 25.175781 10.417969 C 24.820312 10.195312 24.550781 10.148438 24.132812 10.132812 C 23.464844 10.402344 23.015625 10.789062 22.507812 11.285156 C 21.847656 11.910156 21.171875 12.496094 20.457031 13.0625 C 20.105469 13.355469 19.785156 13.671875 19.464844 14 C 19.007812 13.796875 18.652344 13.519531 18.265625 13.199219 C 18.464844 12.632812 18.761719 12.175781 19.113281 11.695312 C 19.226562 11.53125 19.34375 11.367188 19.457031 11.207031 C 19.636719 10.953125 19.816406 10.699219 20 10.449219 C 20.828125 9.378906 20.828125 9.378906 21.160156 8.101562 C 21.058594 7.5625 20.976562 7.378906 20.535156 7.066406 C 20.144531 6.875 19.898438 6.882812 19.464844 6.933594 C 18.730469 7.445312 18.28125 8.09375 17.785156 8.832031 C 17.621094 9.070312 17.457031 9.308594 17.292969 9.546875 C 17.167969 9.726562 17.167969 9.726562 17.042969 9.910156 C 16.605469 10.546875 16.15625 11.175781 15.710938 11.804688 C 15.039062 12.660156 15.039062 12.660156 14.808594 13.675781 C 14.949219 14.1875 15.054688 14.34375 15.464844 14.667969 C 15.847656 14.746094 15.847656 14.746094 16.257812 14.742188 C 16.996094 14.757812 17.441406 14.917969 17.976562 15.433594 C 18.203125 15.867188 18.183594 16.183594 18.132812 16.667969 C 17.851562 17.351562 17.65625 17.371094 16.933594 17.734375 C 15.480469 17.6875 14.03125 17.644531 12.535156 17.601562 C 12.535156 11.878906 12.535156 6.160156 12.535156 0.265625 C 13.726562 0.0507812 14.738281 -0.0507812 15.933594 -0.0507812 Z M 15.933594 -0.0507812 "/>
<path style=" stroke:none;fill-rule:nonzero;fill:rgb(39.215687%,83.529413%,82.352942%);fill-opacity:1;" d="M 11.734375 0.535156 C 11.734375 10.742188 11.734375 20.949219 11.734375 31.464844 C 10.398438 31.066406 10.398438 31.066406 8.667969 30.265625 C 8.667969 27.757812 8.667969 25.25 8.667969 22.667969 C 9.464844 22.398438 9.464844 22.398438 10 22.398438 C 10 20.597656 10 18.792969 10 16.933594 C 9.734375 16.84375 9.472656 16.757812 9.199219 16.667969 C 9.023438 16.578125 8.847656 16.492188 8.667969 16.398438 C 8.667969 11.558594 8.667969 6.71875 8.667969 1.734375 C 11.066406 0.535156 11.066406 0.535156 11.734375 0.535156 Z M 11.734375 0.535156 "/>
<path style=" stroke:none;fill-rule:nonzero;fill:rgb(44.313726%,86.666667%,81.176472%);fill-opacity:1;" d="M 7.066406 2.667969 C 7.066406 11.464844 7.066406 20.265625 7.066406 29.332031 C 6.539062 29.003906 6.539062 29.003906 6 28.667969 C 6 28.578125 6 28.492188 6 28.398438 C 5.886719 28.347656 5.886719 28.347656 5.769531 28.296875 C 5.4375 28.117188 5.1875 27.914062 4.910156 27.667969 C 4.816406 27.585938 4.722656 27.503906 4.628906 27.421875 C 4.105469 26.914062 4.210938 26.242188 4.191406 25.558594 C 4.183594 25.429688 4.175781 25.304688 4.167969 25.175781 C 4.15625 24.800781 4.164062 24.496094 4.265625 24.132812 C 4.71875 23.664062 5.246094 23.480469 5.867188 23.332031 C 5.882812 22.359375 5.890625 21.382812 5.890625 20.410156 C 5.890625 19.957031 5.890625 19.503906 5.902344 19.050781 C 5.910156 18.53125 5.910156 18.007812 5.90625 17.488281 C 5.910156 17.324219 5.914062 17.164062 5.917969 16.996094 C 5.910156 16.53125 5.894531 16.171875 5.734375 15.734375 C 5.402344 15.480469 5.402344 15.480469 5 15.296875 C 4.597656 15.082031 4.597656 15.082031 4.265625 14.800781 C 4.042969 14.066406 4.074219 13.34375 4.089844 12.582031 C 4.089844 12.367188 4.089844 12.148438 4.089844 11.929688 C 4.089844 11.476562 4.097656 11.019531 4.105469 10.566406 C 4.117188 9.984375 4.117188 9.402344 4.113281 8.820312 C 4.113281 8.371094 4.117188 7.921875 4.121094 7.472656 C 4.121094 7.257812 4.125 7.046875 4.125 6.832031 C 4.125 4.953125 4.125 4.953125 4.714844 4.351562 C 4.957031 4.164062 4.957031 4.164062 5.199219 4 C 5.355469 3.875 5.511719 3.746094 5.664062 3.617188 C 5.816406 3.503906 5.964844 3.386719 6.117188 3.273438 C 6.195312 3.214844 6.269531 3.15625 6.351562 3.09375 C 6.914062 2.667969 6.914062 2.667969 7.066406 2.667969 Z M 7.066406 2.667969 "/>
<path style=" stroke:none;fill-rule:nonzero;fill:rgb(49.803922%,89.803922%,80.000001%);fill-opacity:1;" d="M 1.601562 8.933594 C 1.644531 8.933594 1.6875 8.933594 1.734375 8.933594 C 1.734375 13.640625 1.734375 18.347656 1.734375 23.199219 C 1.355469 22.699219 1.144531 22.246094 0.933594 21.667969 C 0.898438 21.574219 0.863281 21.476562 0.828125 21.378906 C -0.574219 17.5 -0.351562 13.085938 1.332031 9.332031 C 1.421875 9.203125 1.507812 9.070312 1.601562 8.933594 Z M 1.601562 8.933594 "/>
</g>
</svg>
